<svg width="400" height="400" viewBox="0 0 400 400" fill="none" xmlns="http://www.w3.org/2000/svg">
<g clip-path="url(#clip0_5_7)">
<rect width="400" height="400" fill="black"/>
<path d="M110.117 311.6C82.1172 311.6 61.4172 302.1 48.0172 283.1C34.8172 264.1 28.2172 237.5 28.2172 203.3C28.2172 169.1 34.8172 142.5 48.0172 123.5C61.4172 104.5 82.1172 95 110.117 95C138.117 95 158.717 104.5 171.917 123.5C185.317 142.5 192.017 169.1 192.017 203.3C192.017 237.5 185.317 264.1 171.917 283.1C158.717 302.1 138.117 311.6 110.117 311.6ZM110.117 275.3C122.917 275.3 131.717 270.6 136.517 261.2C141.517 251.6 144.017 238.3 144.017 221.3V185C144.017 168.2 141.517 155.1 136.517 145.7C131.717 136.1 122.917 131.3 110.117 131.3C97.3172 131.3 88.4172 136.1 83.4172 145.7C78.6172 155.1 76.2172 168.2 76.2172 185V221.6C76.2172 238.4 78.6172 251.6 83.4172 261.2C88.4172 270.6 97.3172 275.3 110.117 275.3ZM222.8 308V98.6H303.8C314 98.6 323.1 100.2 331.1 103.4C339.1 106.4 345.8 110.8 351.2 116.6C356.8 122.4 361 129.4 363.8 137.6C366.6 145.8 368 155 368 165.2C368 175.4 366.6 184.6 363.8 192.8C361 201 356.8 208 351.2 213.8C345.8 219.6 339.1 224.1 331.1 227.3C323.1 230.3 314 231.8 303.8 231.8H268.1V308H222.8ZM268.1 195.5H292.4C303 195.5 310.3 193.5 314.3 189.5C318.5 185.5 320.6 178.9 320.6 169.7V160.7C320.6 151.5 318.5 144.9 314.3 140.9C310.3 136.9 303 134.9 292.4 134.9H268.1V195.5Z" fill="white"/>
</g>
<defs>
<clipPath id="clip0_5_7">
<rect width="400" height="400" fill="white"/>
</clipPath>
</defs>
</svg>
