<svg width="667" height="175" viewBox="0 0 667 175" fill="none" xmlns="http://www.w3.org/2000/svg">
<rect width="667" height="175" fill="black"/>
<path d="M46 134.44C40.56 134.44 35.84 133.48 31.84 131.56C27.84 129.56 24.52 126.72 21.88 123.04C19.32 119.36 17.4 114.84 16.12 109.48C14.92 104.12 14.32 98 14.32 91.12C14.32 84.32 14.92 78.24 16.12 72.88C17.4 67.44 19.32 62.88 21.88 59.2C24.52 55.52 27.84 52.72 31.84 50.8C35.84 48.8 40.56 47.8 46 47.8C56.88 47.8 64.88 51.6 70 59.2C75.12 66.8 77.68 77.44 77.68 91.12C77.68 104.8 75.12 115.44 70 123.04C64.88 130.64 56.88 134.44 46 134.44ZM46 121.6C48.8 121.6 51.16 121.08 53.08 120.04C55 118.92 56.52 117.36 57.64 115.36C58.84 113.36 59.68 110.92 60.16 108.04C60.72 105.08 61 101.8 61 98.2V83.92C61 76.72 59.88 71.04 57.64 66.88C55.48 62.72 51.6 60.64 46 60.64C40.4 60.64 36.48 62.72 34.24 66.88C32.08 71.04 31 76.72 31 83.92V98.32C31 105.52 32.08 111.2 34.24 115.36C36.48 119.52 40.4 121.6 46 121.6ZM90.2331 71.08H105.593V82H106.433C108.113 78.24 110.393 75.24 113.273 73C116.233 70.76 120.113 69.64 124.913 69.64C128.433 69.64 131.633 70.32 134.513 71.68C137.473 72.96 139.993 74.96 142.073 77.68C144.153 80.32 145.753 83.68 146.873 87.76C147.993 91.84 148.553 96.6 148.553 102.04C148.553 107.48 147.993 112.24 146.873 116.32C145.753 120.4 144.153 123.8 142.073 126.52C139.993 129.16 137.473 131.16 134.513 132.52C131.633 133.8 128.433 134.44 124.913 134.44C120.113 134.44 116.233 133.32 113.273 131.08C110.393 128.84 108.113 125.84 106.433 122.08H105.593V157H90.2331V71.08ZM118.433 122.2C122.913 122.2 126.353 120.84 128.753 118.12C131.233 115.4 132.473 111.68 132.473 106.96V97.12C132.473 92.4 131.233 88.68 128.753 85.96C126.353 83.24 122.913 81.88 118.433 81.88C114.913 81.88 111.873 82.76 109.313 84.52C106.833 86.2 105.593 88.8 105.593 92.32V111.76C105.593 115.28 106.833 117.92 109.313 119.68C111.873 121.36 114.913 122.2 118.433 122.2ZM191.346 134.44C186.386 134.44 181.986 133.68 178.146 132.16C174.306 130.64 171.066 128.48 168.426 125.68C165.866 122.88 163.906 119.52 162.546 115.6C161.186 111.6 160.506 107.12 160.506 102.16C160.506 97.12 161.186 92.6 162.546 88.6C163.986 84.6 165.986 81.2 168.546 78.4C171.106 75.6 174.186 73.44 177.786 71.92C181.466 70.4 185.586 69.64 190.146 69.64C194.626 69.64 198.666 70.4 202.266 71.92C205.866 73.36 208.906 75.44 211.386 78.16C213.946 80.88 215.906 84.16 217.266 88C218.626 91.84 219.306 96.08 219.306 100.72V105.76H175.866V107.32C175.866 111.8 177.266 115.44 180.066 118.24C182.866 120.96 186.786 122.32 191.826 122.32C195.666 122.32 198.946 121.56 201.666 120.04C204.466 118.44 206.786 116.36 208.626 113.8L217.386 122.56C215.146 125.84 211.866 128.64 207.546 130.96C203.306 133.28 197.906 134.44 191.346 134.44ZM190.266 80.92C185.946 80.92 182.466 82.28 179.826 85C177.186 87.72 175.866 91.32 175.866 95.8V96.64H203.946V95.56C203.946 91.08 202.706 87.52 200.226 84.88C197.826 82.24 194.506 80.92 190.266 80.92ZM234.859 133V71.08H250.219V82H250.819C252.179 78.64 254.259 75.76 257.059 73.36C259.939 70.88 263.899 69.64 268.939 69.64C275.019 69.64 279.939 71.68 283.699 75.76C287.539 79.76 289.459 85.52 289.459 93.04V133H274.099V95.2C274.099 86.24 270.219 81.76 262.459 81.76C260.859 81.76 259.339 81.96 257.899 82.36C256.459 82.76 255.139 83.4 253.939 84.28C252.819 85.08 251.899 86.08 251.179 87.28C250.539 88.48 250.219 89.92 250.219 91.6V133H234.859ZM307.413 133V49.24H339.213C347.373 49.24 353.613 51.56 357.933 56.2C362.253 60.84 364.413 67.16 364.413 75.16C364.413 83.16 362.253 89.48 357.933 94.12C353.613 98.76 347.373 101.08 339.213 101.08H323.133V133H307.413ZM323.133 88.24H335.973C340.213 88.24 343.253 87.4 345.093 85.72C346.933 83.96 347.853 81.2 347.853 77.44V72.88C347.853 69.12 346.933 66.4 345.093 64.72C343.253 62.96 340.213 62.08 335.973 62.08H323.133V88.24ZM378.766 120.88H394.126V83.2H378.766V71.08H409.486V88H410.446C411.006 85.84 411.766 83.76 412.726 81.76C413.766 79.68 415.046 77.88 416.566 76.36C418.166 74.76 420.086 73.48 422.326 72.52C424.566 71.56 427.246 71.08 430.366 71.08H437.086V85.48H424.366C419.726 85.48 416.086 86.84 413.446 89.56C410.806 92.28 409.486 95.76 409.486 100V120.88H430.966V133H378.766V120.88ZM477.719 134.44C472.999 134.44 468.759 133.68 464.999 132.16C461.319 130.64 458.159 128.48 455.519 125.68C452.959 122.88 450.959 119.48 449.519 115.48C448.159 111.48 447.479 107 447.479 102.04C447.479 97.08 448.159 92.6 449.519 88.6C450.959 84.6 452.959 81.2 455.519 78.4C458.159 75.6 461.319 73.44 464.999 71.92C468.759 70.4 472.999 69.64 477.719 69.64C482.359 69.64 486.559 70.4 490.319 71.92C494.079 73.44 497.239 75.6 499.799 78.4C502.439 81.2 504.439 84.6 505.799 88.6C507.239 92.6 507.959 97.08 507.959 102.04C507.959 107 507.239 111.48 505.799 115.48C504.439 119.48 502.439 122.88 499.799 125.68C497.239 128.48 494.079 130.64 490.319 132.16C486.559 133.68 482.359 134.44 477.719 134.44ZM477.719 122.68C482.119 122.68 485.599 121.36 488.159 118.72C490.719 116 491.999 112.04 491.999 106.84V97.24C491.999 92.04 490.719 88.12 488.159 85.48C485.599 82.76 482.119 81.4 477.719 81.4C473.319 81.4 469.839 82.76 467.279 85.48C464.719 88.12 463.439 92.04 463.439 97.24V106.84C463.439 112.04 464.719 116 467.279 118.72C469.839 121.36 473.319 122.68 477.719 122.68ZM518.112 133V71.08H530.832V79.6H531.552C532.512 76.88 533.872 74.56 535.632 72.64C537.472 70.64 540.032 69.64 543.312 69.64C546.432 69.64 548.912 70.56 550.752 72.4C552.592 74.16 553.792 76.68 554.352 79.96H554.952C555.992 77.16 557.512 74.76 559.512 72.76C561.592 70.68 564.512 69.64 568.272 69.64C572.832 69.64 576.112 71.28 578.112 74.56C580.112 77.84 581.112 82.68 581.112 89.08V133H568.512V90.88C568.512 87.28 567.992 84.76 566.952 83.32C565.992 81.88 564.512 81.16 562.512 81.16C560.672 81.16 559.112 81.76 557.832 82.96C556.632 84.16 556.032 86 556.032 88.48V133H543.312V90.88C543.312 87.28 542.832 84.76 541.872 83.32C540.912 81.88 539.432 81.16 537.432 81.16C535.512 81.16 533.912 81.76 532.632 82.96C531.432 84.16 530.832 86 530.832 88.48V133H518.112ZM621.625 134.44C616.905 134.44 612.665 133.68 608.905 132.16C605.225 130.64 602.065 128.48 599.425 125.68C596.865 122.88 594.865 119.48 593.425 115.48C592.065 111.48 591.385 107 591.385 102.04C591.385 97.08 592.065 92.6 593.425 88.6C594.865 84.6 596.865 81.2 599.425 78.4C602.065 75.6 605.225 73.44 608.905 71.92C612.665 70.4 616.905 69.64 621.625 69.64C626.265 69.64 630.465 70.4 634.225 71.92C637.985 73.44 641.145 75.6 643.705 78.4C646.345 81.2 648.345 84.6 649.705 88.6C651.145 92.6 651.865 97.08 651.865 102.04C651.865 107 651.145 111.48 649.705 115.48C648.345 119.48 646.345 122.88 643.705 125.68C641.145 128.48 637.985 130.64 634.225 132.16C630.465 133.68 626.265 134.44 621.625 134.44ZM621.625 122.68C626.025 122.68 629.505 121.36 632.065 118.72C634.625 116 635.905 112.04 635.905 106.84V97.24C635.905 92.04 634.625 88.12 632.065 85.48C629.505 82.76 626.025 81.4 621.625 81.4C617.225 81.4 613.745 82.76 611.185 85.48C608.625 88.12 607.345 92.04 607.345 97.24V106.84C607.345 112.04 608.625 116 611.185 118.72C613.745 121.36 617.225 122.68 621.625 122.68Z" fill="white"/>
</svg>
